<svg xmlns="http://www.w3.org/2000/svg" viewBox="0 0 200 200" width="200" height="200">
  <!-- Peerforum Isotipo: Circle of dots representing peer diversity -->
  <!-- Hex grid pattern, larger dots at center, smaller toward periphery -->
  <!-- ~121 dots, faithful to original 2021 brand book -->
  <g fill="#F6F8F6">
    <circle cx="99.9" cy="25.9" r="3.2"/>
    <circle cx="85.2" cy="27.7" r="3.8"/>
    <circle cx="129.0" cy="28.0" r="3.4"/>
    <circle cx="73.0" cy="28.3" r="3.1"/>
    <circle cx="113.9" cy="28.5" r="3.1"/>
    <circle cx="147.9" cy="37.9" r="3.4"/>
    <circle cx="51.1" cy="38.0" r="3.4"/>
    <circle cx="106.7" cy="38.2" r="3.9"/>
    <circle cx="64.9" cy="38.5" r="4.1"/>
    <circle cx="92.3" cy="38.9" r="4.1"/>
    <circle cx="122.4" cy="39.2" r="3.7"/>
    <circle cx="135.1" cy="39.3" r="3.6"/>
    <circle cx="78.8" cy="40.9" r="4.4"/>
    <circle cx="84.7" cy="50.5" r="5.1"/>
    <circle cx="45.2" cy="50.6" r="3.0"/>
    <circle cx="58.9" cy="51.2" r="4.1"/>
    <circle cx="115.3" cy="51.2" r="4.7"/>
    <circle cx="127.0" cy="51.3" r="5.0"/>
    <circle cx="100.6" cy="51.7" r="5.3"/>
    <circle cx="71.6" cy="52.5" r="4.0"/>
    <circle cx="142.6" cy="52.8" r="3.8"/>
    <circle cx="154.5" cy="52.8" r="3.5"/>
    <circle cx="148.8" cy="62.2" r="4.4"/>
    <circle cx="37.4" cy="62.4" r="3.9"/>
    <circle cx="78.1" cy="62.4" r="4.8"/>
    <circle cx="107.8" cy="63.0" r="6.4"/>
    <circle cx="164.4" cy="63.2" r="3.6"/>
    <circle cx="63.8" cy="63.3" r="5.4"/>
    <circle cx="93.7" cy="63.8" r="5.1"/>
    <circle cx="50.8" cy="63.9" r="4.5"/>
    <circle cx="119.6" cy="63.9" r="6.0"/>
    <circle cx="134.0" cy="64.9" r="4.5"/>
    <circle cx="141.3" cy="74.4" r="5.3"/>
    <circle cx="115.4" cy="74.8" r="6.2"/>
    <circle cx="154.7" cy="74.8" r="4.6"/>
    <circle cx="85.9" cy="74.9" r="6.8"/>
    <circle cx="128.6" cy="74.9" r="5.2"/>
    <circle cx="57.0" cy="75.2" r="4.6"/>
    <circle cx="70.6" cy="75.7" r="5.3"/>
    <circle cx="30.3" cy="75.8" r="3.2"/>
    <circle cx="100.2" cy="75.9" r="5.9"/>
    <circle cx="44.9" cy="76.0" r="4.3"/>
    <circle cx="168.7" cy="76.6" r="4.1"/>
    <circle cx="38.4" cy="86.8" r="3.8"/>
    <circle cx="133.5" cy="86.8" r="6.0"/>
    <circle cx="162.3" cy="87.1" r="4.9"/>
    <circle cx="94.4" cy="87.2" r="7.3"/>
    <circle cx="108.1" cy="87.7" r="7.9"/>
    <circle cx="177.7" cy="88.1" r="3.5"/>
    <circle cx="65.8" cy="88.4" r="6.3"/>
    <circle cx="79.1" cy="88.4" r="6.7"/>
    <circle cx="121.1" cy="88.8" r="7.0"/>
    <circle cx="23.7" cy="89.0" r="2.7"/>
    <circle cx="49.8" cy="89.0" r="5.4"/>
    <circle cx="149.6" cy="89.2" r="5.1"/>
    <circle cx="72.9" cy="98.8" r="5.8"/>
    <circle cx="170.9" cy="99.1" r="3.9"/>
    <circle cx="86.8" cy="99.3" r="8.2"/>
    <circle cx="59.2" cy="99.9" r="5.7"/>
    <circle cx="43.2" cy="100.0" r="4.9"/>
    <circle cx="128.3" cy="100.0" r="7.3"/>
    <circle cx="100.5" cy="100.2" r="9.2"/>
    <circle cx="30.8" cy="100.7" r="3.9"/>
    <circle cx="113.7" cy="100.9" r="8.3"/>
    <circle cx="157.5" cy="101.0" r="4.7"/>
    <circle cx="143.1" cy="101.3" r="5.2"/>
    <circle cx="51.9" cy="111.1" r="4.9"/>
    <circle cx="37.1" cy="111.2" r="4.3"/>
    <circle cx="150.3" cy="111.2" r="6.1"/>
    <circle cx="177.4" cy="111.6" r="3.4"/>
    <circle cx="120.7" cy="111.7" r="7.2"/>
    <circle cx="64.9" cy="113.0" r="6.5"/>
    <circle cx="164.1" cy="113.0" r="4.3"/>
    <circle cx="93.0" cy="113.1" r="6.4"/>
    <circle cx="77.9" cy="113.2" r="7.4"/>
    <circle cx="106.8" cy="113.5" r="7.6"/>
    <circle cx="135.5" cy="113.5" r="6.5"/>
    <circle cx="23.7" cy="113.6" r="2.7"/>
    <circle cx="170.7" cy="122.9" r="4.1"/>
    <circle cx="155.4" cy="123.2" r="4.8"/>
    <circle cx="100.4" cy="124.2" r="6.8"/>
    <circle cx="72.9" cy="124.3" r="6.6"/>
    <circle cx="57.8" cy="124.6" r="5.2"/>
    <circle cx="126.7" cy="124.7" r="5.7"/>
    <circle cx="31.5" cy="124.9" r="3.7"/>
    <circle cx="141.5" cy="125.0" r="5.6"/>
    <circle cx="43.4" cy="125.1" r="3.9"/>
    <circle cx="85.9" cy="125.4" r="7.3"/>
    <circle cx="112.9" cy="125.4" r="7.4"/>
    <circle cx="51.3" cy="135.1" r="3.7"/>
    <circle cx="122.2" cy="135.6" r="6.5"/>
    <circle cx="38.2" cy="135.7" r="3.4"/>
    <circle cx="134.1" cy="136.4" r="4.8"/>
    <circle cx="161.8" cy="136.4" r="3.8"/>
    <circle cx="78.1" cy="136.7" r="6.2"/>
    <circle cx="64.6" cy="136.9" r="5.4"/>
    <circle cx="108.3" cy="137.1" r="6.4"/>
    <circle cx="149.3" cy="137.5" r="4.6"/>
    <circle cx="93.6" cy="137.7" r="6.8"/>
    <circle cx="42.8" cy="147.9" r="3.3"/>
    <circle cx="113.5" cy="148.1" r="5.6"/>
    <circle cx="142.9" cy="148.2" r="4.8"/>
    <circle cx="155.7" cy="148.3" r="4.2"/>
    <circle cx="87.3" cy="148.9" r="5.4"/>
    <circle cx="100.1" cy="148.9" r="5.0"/>
    <circle cx="127.1" cy="148.9" r="4.6"/>
    <circle cx="72.4" cy="149.3" r="5.0"/>
    <circle cx="59.3" cy="149.6" r="3.8"/>
    <circle cx="120.5" cy="159.3" r="4.2"/>
    <circle cx="147.7" cy="159.3" r="3.8"/>
    <circle cx="93.5" cy="159.6" r="4.2"/>
    <circle cx="135.9" cy="159.8" r="3.5"/>
    <circle cx="51.8" cy="160.0" r="3.5"/>
    <circle cx="106.8" cy="160.2" r="4.3"/>
    <circle cx="79.0" cy="160.7" r="3.9"/>
    <circle cx="63.6" cy="161.6" r="3.2"/>
    <circle cx="101.5" cy="171.6" r="3.5"/>
    <circle cx="126.6" cy="171.7" r="3.6"/>
    <circle cx="86.5" cy="173.0" r="3.0"/>
    <circle cx="70.6" cy="173.8" r="2.7"/>
    <circle cx="115.5" cy="174.2" r="3.6"/>
  </g>
</svg>
