<svg xmlns="http://www.w3.org/2000/svg" viewBox="0 0 200 200" width="200" height="200">
  <!-- Peerforum Isotipo: Circle of dots representing peer diversity -->
  <!-- Larger dots concentrated center-right, smaller dots on periphery -->
  <g fill="#225430">
    <!-- Core cluster (center-right, larger dots) -->
    <circle cx="110" cy="95" r="9"/>
    <circle cx="120" cy="108" r="8.5"/>
    <circle cx="105" cy="112" r="7.5"/>
    <circle cx="118" cy="82" r="8"/>
    <circle cx="128" cy="96" r="7"/>
    <circle cx="112" cy="75" r="6.5"/>
    <circle cx="130" cy="112" r="6"/>
    <circle cx="100" cy="85" r="7"/>
    <circle cx="96" cy="100" r="6.5"/>
    <circle cx="108" cy="125" r="5.5"/>

    <!-- Mid-ring (medium dots) -->
    <circle cx="85" cy="90" r="5.5"/>
    <circle cx="78" cy="105" r="5"/>
    <circle cx="88" cy="118" r="5"/>
    <circle cx="92" cy="72" r="4.5"/>
    <circle cx="135" cy="80" r="4.5"/>
    <circle cx="140" cy="105" r="4"/>
    <circle cx="125" cy="125" r="4.5"/>
    <circle cx="95" cy="130" r="4"/>
    <circle cx="75" cy="85" r="4"/>
    <circle cx="82" cy="75" r="3.5"/>
    <circle cx="115" cy="65" r="4"/>
    <circle cx="132" cy="70" r="3.5"/>
    <circle cx="138" cy="90" r="3.5"/>
    <circle cx="100" cy="60" r="3.5"/>
    <circle cx="72" cy="95" r="3.5"/>

    <!-- Outer ring (smaller dots) -->
    <circle cx="65" cy="100" r="3"/>
    <circle cx="68" cy="112" r="2.5"/>
    <circle cx="75" cy="125" r="2.5"/>
    <circle cx="85" cy="135" r="2.5"/>
    <circle cx="100" cy="140" r="2"/>
    <circle cx="115" cy="138" r="2.5"/>
    <circle cx="130" cy="132" r="2"/>
    <circle cx="142" cy="120" r="2"/>
    <circle cx="148" cy="100" r="2"/>
    <circle cx="145" cy="85" r="2"/>
    <circle cx="140" cy="72" r="2.5"/>
    <circle cx="128" cy="62" r="2"/>
    <circle cx="108" cy="55" r="2.5"/>
    <circle cx="90" cy="58" r="2"/>
    <circle cx="78" cy="65" r="2.5"/>
    <circle cx="68" cy="78" r="2"/>
    <circle cx="62" cy="88" r="2"/>

    <!-- Periphery (tiny dots, creating dispersion) -->
    <circle cx="58" cy="95" r="1.5"/>
    <circle cx="60" cy="108" r="1.5"/>
    <circle cx="63" cy="120" r="1.5"/>
    <circle cx="70" cy="132" r="1.5"/>
    <circle cx="80" cy="142" r="1.5"/>
    <circle cx="95" cy="148" r="1.5"/>
    <circle cx="110" cy="145" r="1.5"/>
    <circle cx="125" cy="140" r="1.5"/>
    <circle cx="138" cy="130" r="1.5"/>
    <circle cx="150" cy="115" r="1.5"/>
    <circle cx="152" cy="95" r="1.5"/>
    <circle cx="148" cy="78" r="1.5"/>
    <circle cx="138" cy="65" r="1.5"/>
    <circle cx="120" cy="55" r="1.5"/>
    <circle cx="95" cy="52" r="1.5"/>
    <circle cx="82" cy="55" r="1.5"/>
    <circle cx="70" cy="68" r="1.5"/>
    <circle cx="60" cy="82" r="1.5"/>
    <circle cx="55" cy="100" r="1"/>
    <circle cx="105" cy="150" r="1"/>
    <circle cx="155" cy="100" r="1"/>
    <circle cx="100" cy="50" r="1"/>
    <circle cx="55" cy="110" r="1"/>
  </g>
</svg>
